<svg id="Group_2333" data-name="Group 2333" xmlns="http://www.w3.org/2000/svg" width="66.73" height="52.811" viewBox="0 0 66.73 52.811">
  <path id="Path_1096" data-name="Path 1096" d="M15.308,0A15.287,15.287,0,1,0,27.794,24.079,26.425,26.425,0,0,1,1.411,50.032a1.39,1.39,0,1,0,0,2.78A29.218,29.218,0,0,0,30.6,23.626V15.288A15.3,15.3,0,0,0,15.308,0Z" transform="translate(30.596 52.811) rotate(180)" fill="#f8d9af"/>
  <path id="Path_1097" data-name="Path 1097" d="M15.308,0A15.287,15.287,0,1,0,27.794,24.079,26.425,26.425,0,0,1,1.411,50.032a1.39,1.39,0,0,0,0,2.78A29.218,29.218,0,0,0,30.6,23.626V15.288A15.3,15.3,0,0,0,15.308,0Z" transform="translate(66.73 52.811) rotate(180)" fill="#f8d9af"/>
</svg>
