<svg xmlns="http://www.w3.org/2000/svg" width="407.298" height="523.952" viewBox="0 0 407.298 523.952">
  <g id="add-girl-art" transform="translate(-480.816 -39.055)">
    <circle id="Ellipse_80" data-name="Ellipse 80" cx="20.514" cy="20.514" r="20.514" transform="translate(691.502 486.108)" fill="#3f3d56"/>
    <path id="Path_1228" data-name="Path 1228" d="M957.7,691.127V349.646h156.65V691.127ZM959.951,351.9V688.873H1112.1V351.9Z" transform="translate(-226.236 -148.775)" fill="#3f3d56"/>
    <rect id="Rectangle_992" data-name="Rectangle 992" width="252.448" height="101.43" transform="translate(859.939 245.951) rotate(90)" fill="#d0cde1"/>
    <rect id="Rectangle_993" data-name="Rectangle 993" width="60.858" height="60.858" transform="translate(839.653 270.745) rotate(90)" fill="#6a5fdd"/>
    <rect id="Rectangle_994" data-name="Rectangle 994" width="29.302" height="29.302" transform="translate(852.901 421.488) rotate(150)" fill="#ff6584"/>
    <rect id="Rectangle_995" data-name="Rectangle 995" width="99.176" height="29.302" transform="translate(804.716 372.175) rotate(90)" fill="#3f3d56"/>
    <path id="Path_1229" data-name="Path 1229" d="M778.414,400.407l-43.975,93.325,30.782,17.1,54.725-93.325Z" transform="translate(-144.329 -78.686)" fill="#ffb8b8"/>
    <path id="Path_1230" data-name="Path 1230" d="M778.414,400.407l-43.975,93.325,30.782,17.1,54.725-93.325Z" transform="translate(-144.329 -78.686)" opacity="0.1"/>
    <path id="Path_1231" data-name="Path 1231" d="M757,600.393,704.227,708.866l-29.8,29.806s-41.044.489-24.919,16.124,65.963-2.932,65.963-2.932L714,757.727l32.249-2.932-.977-11.727L742.34,741.6s1.954-22.476-2.932-26.874,8.8-9.772,8.8-9.772L804.4,607.233Z" transform="translate(-164.933 -198.051)" fill="#2f2e41"/>
    <path id="Path_1232" data-name="Path 1232" d="M794.077,491.316S747.17,518.678,759.385,543.6s16.124,26.874,16.124,26.874L800.428,552.4l-4.4-10.261,48.862-28.34S807.27,484.964,794.077,491.316Z" transform="translate(-186.866 -176.436)" fill="#ffb8b8"/>
    <path id="Path_1233" data-name="Path 1233" d="M766.571,579.412l66.94,107.007,6.841,29.806S815.921,747.007,834,748.961s38.6-26.874,39.578-40.067,2.443-21.5,2.443-21.5l4.886,1.954s14.658-23.453,7.329-26.385a114.09,114.09,0,0,0-13.193-4.4s-10.75-6.841-21.01-4.4c0,0,1.954-7.818,0-11.238S799.9,553.3,799.9,553.3Z" transform="translate(-188.677 -188.796)" fill="#2f2e41"/>
    <circle id="Ellipse_84" data-name="Ellipse 84" cx="26.874" cy="26.874" r="26.874" transform="translate(666.334 49.073)" fill="#ffb8b8"/>
    <path id="Path_1234" data-name="Path 1234" d="M897.381,214.138s9.772,27.851,7.329,35.669-21.988,44.464-21.988,44.464l2.443,17.1,48.862-75.247s-12.215-16.124-8.8-27.362Z" transform="translate(-211.502 -121.09)" fill="#ffb8b8"/>
    <path id="Path_1235" data-name="Path 1235" d="M898.012,466.983l-14.17,58.145s-70.361-42.021-89.905-40.555c0,0,42.509-48.373,58.634-48.373S898.012,466.983,898.012,466.983Z" transform="translate(-194.055 -165.784)" fill="#2f2e41"/>
    <path id="Path_1236" data-name="Path 1236" d="M945.382,245.528s-11.238-18.079-24.919-2.443-38.6,56.679-38.6,56.679l1.745-11.681s-15.427,11.681-16.4,26.828-4.886,65.963-4.886,65.963l-6.352,21.5,60.588,35.18,9.772-16.613s36.646,6.841,40.555,2.443-22.761-75.843-22.761-75.843Z" transform="translate(-206.244 -126.583)" fill="#575a89"/>
    <path id="Path_1237" data-name="Path 1237" d="M886.464,374.172l-29.317,40.555s-35.18,13.681-29.317,24.919,35.669-17.1,35.669-17.1l43.975-38.6Z" transform="translate(-200.586 -153.595)" fill="#ffb8b8"/>
    <path id="Path_1238" data-name="Path 1238" d="M928.539,252.8s-21.5,34.2-22.476,60.1-.733,23.209-.733,23.209l-10.749,15.147,25.408,14.17,12.948-13.437s28.828-8.307,25.408-32.249-5.375-68.406-10.261-68.406S928.539,252.8,928.539,252.8Z" transform="translate(-213.833 -129.455)" opacity="0.1"/>
    <path id="Path_1239" data-name="Path 1239" d="M929.7,246.716s-21.5,34.2-22.476,60.1S908.69,333.2,908.69,333.2L895.5,350.791l24.431,13.193L934.1,345.9s28.828-8.306,25.408-32.249-5.375-68.406-10.261-68.406S929.7,246.716,929.7,246.716Z" transform="translate(-214.012 -128.26)" fill="#575a89"/>
    <path id="Path_1240" data-name="Path 1240" d="M870.991,179.835s-8.275-39.978,35.067-29.975c0,0,29.808-7.859,42.614,29.2l13.07,38.873-5.1-2.289-1.9,5.16-7.775,2.614-3.907-6.474-1.016,8.3L877.6,236.683s27.768-19.424,25.872-50.285l-5.092,6.278Z" transform="translate(-209.073 -109.198)" fill="#2f2e41"/>
  </g>
</svg>
