<svg id="undraw_add_color_19gv" xmlns="http://www.w3.org/2000/svg" width="888.114" height="563.007" viewBox="0 0 888.114 563.007">
  <path id="Path_1219" data-name="Path 1219" d="M100.306,700.422c7.8,28.82,34.5,46.67,34.5,46.67s14.064-28.878,6.268-57.7-34.5-46.67-34.5-46.67S92.51,671.6,100.306,700.422Z" transform="translate(-57.283 -206.369)" fill="#3f3d56"/>
  <path id="Path_1220" data-name="Path 1220" d="M126.836,754.888l-1.065-.058c-.324-.017-32.668-2.011-54.065-22.839S47.449,678.884,47.422,678.56l-.087-1.062,1.065.058c.324.017,32.668,2.011,54.064,22.839s24.259,53.107,24.285,53.431ZM49.4,679.5c.7,5.762,4.926,32.969,23.609,51.155S119,752.337,124.776,752.883c-.7-5.763-4.926-32.968-23.61-51.155h0C82.47,683.526,55.173,680.047,49.4,679.5Z" transform="translate(-47.336 -213.203)" fill="#3f3d56"/>
  <circle id="Ellipse_80" data-name="Ellipse 80" cx="20.514" cy="20.514" r="20.514" transform="translate(691.502 486.108)" fill="#3f3d56"/>
  <rect id="Rectangle_990" data-name="Rectangle 990" width="279.837" height="237.711" transform="translate(161.922 304.071)" fill="#d0cde1"/>
  <path id="Path_1221" data-name="Path 1221" d="M473.669,675.748H190.8V435h282.87ZM193.836,672.71h276.8V438.039h-276.8Z" transform="translate(-75.528 -165.549)" fill="#3f3d56"/>
  <path id="Path_1222" data-name="Path 1222" d="M411.1,345.528l-5.736,6.778a5.522,5.522,0,0,1-8.182,0l-5.736-6.778V298.435H411.1Z" transform="translate(-114.96 -138.711)" fill="#ff6584"/>
  <path id="Path_1223" data-name="Path 1223" d="M425.339,238.055H414.782a24.991,24.991,0,0,0,4.4-14.194c0-13.869-11.243-38.215-25.112-38.215s-25.113,24.345-25.113,38.215a24.992,24.992,0,0,0,4.4,14.194H362.8a8.058,8.058,0,0,0-8.035,8.035v5.767a8.059,8.059,0,0,0,8.035,8.035h62.544a8.058,8.058,0,0,0,8.035-8.035V246.09a8.058,8.058,0,0,0-8.035-8.035Z" transform="translate(-107.749 -116.547)" fill="#3f3d56"/>
  <path id="Path_1224" data-name="Path 1224" d="M399.879,352.519a8.4,8.4,0,0,1-6.779-3.389l-8.765-11.686V256.668h31.086v80.776l-8.765,11.686A8.4,8.4,0,0,1,399.879,352.519Zm-13.936-15.611,8.443,11.257a6.867,6.867,0,0,0,10.987,0l8.443-11.257V258.275H385.943Z" transform="translate(-113.562 -130.503)" fill="#3f3d56"/>
  <path id="Path_1225" data-name="Path 1225" d="M410.964,404.716a9.642,9.642,0,1,1-19.284,0c0-5.325,9.642-16.07,9.642-16.07S410.964,399.391,410.964,404.716Z" transform="translate(-115.005 -156.439)" fill="#ff6584"/>
  <path id="Path_1226" data-name="Path 1226" d="M488.049,478.646a111.685,111.685,0,1,1-223.369,0Z" transform="translate(-90.047 -174.126)" fill="#6a5fdd" opacity="0.2"/>
  <path id="Path_1227" data-name="Path 1227" d="M473.476,478.086a92.393,92.393,0,1,1-184.786,0Z" transform="translate(-94.766 -174.016)" fill="#ff6584"/>
  <circle id="Ellipse_81" data-name="Ellipse 81" cx="25.712" cy="25.712" r="25.712" transform="translate(188.293)" fill="#3f3d56"/>
  <circle id="Ellipse_82" data-name="Ellipse 82" cx="25.712" cy="25.712" r="25.712" transform="translate(260.606)" fill="#ff6584"/>
  <circle id="Ellipse_83" data-name="Ellipse 83" cx="25.712" cy="25.712" r="25.712" transform="translate(332.92)" fill="#d0cde1"/>
  <rect id="Rectangle_991" data-name="Rectangle 991" width="524.59" height="1.86" transform="translate(28.324 540.742)" fill="#3f3d56"/>
  <path id="Path_1228" data-name="Path 1228" d="M957.7,691.127V349.646H1114.35V691.127ZM959.951,351.9V688.873H1112.1V351.9Z" transform="translate(-226.236 -148.775)" fill="#3f3d56"/>
  <rect id="Rectangle_992" data-name="Rectangle 992" width="252.448" height="101.43" transform="translate(859.939 245.951) rotate(90)" fill="#d0cde1"/>
  <rect id="Rectangle_993" data-name="Rectangle 993" width="60.858" height="60.858" transform="translate(839.653 270.745) rotate(90)" fill="#6a5fdd"/>
  <rect id="Rectangle_994" data-name="Rectangle 994" width="29.302" height="29.302" transform="translate(852.901 421.488) rotate(150)" fill="#ff6584"/>
  <rect id="Rectangle_995" data-name="Rectangle 995" width="99.176" height="29.302" transform="translate(804.716 372.175) rotate(90)" fill="#3f3d56"/>
  <path id="Path_1229" data-name="Path 1229" d="M778.414,400.407l-43.975,93.325,30.782,17.1,54.725-93.325Z" transform="translate(-144.329 -78.686)" fill="#ffb8b8"/>
  <path id="Path_1230" data-name="Path 1230" d="M778.414,400.407l-43.975,93.325,30.782,17.1,54.725-93.325Z" transform="translate(-144.329 -78.686)" opacity="0.1"/>
  <path id="Path_1231" data-name="Path 1231" d="M757,600.393,704.227,708.866l-29.805,29.806s-41.044.489-24.919,16.124,65.963-2.932,65.963-2.932L714,757.727l32.249-2.932-.977-11.727-2.932-1.466s1.954-22.476-2.932-26.874,8.8-9.772,8.8-9.772l56.191-97.723Z" transform="translate(-164.933 -198.051)" fill="#2f2e41"/>
  <path id="Path_1232" data-name="Path 1232" d="M794.077,491.316S747.17,518.678,759.385,543.6s16.124,26.874,16.124,26.874l24.919-18.079-4.4-10.261,48.862-28.34S807.27,484.964,794.077,491.316Z" transform="translate(-186.866 -176.436)" fill="#ffb8b8"/>
  <path id="Path_1233" data-name="Path 1233" d="M766.571,579.412l66.94,107.007,6.841,29.806S815.921,747.007,834,748.961s38.6-26.874,39.578-40.067,2.443-21.5,2.443-21.5l4.886,1.954s14.658-23.453,7.329-26.385a114.092,114.092,0,0,0-13.193-4.4s-10.75-6.841-21.01-4.4c0,0,1.954-7.818,0-11.238S799.9,553.3,799.9,553.3Z" transform="translate(-188.677 -188.796)" fill="#2f2e41"/>
  <circle id="Ellipse_84" data-name="Ellipse 84" cx="26.874" cy="26.874" r="26.874" transform="translate(666.334 49.073)" fill="#ffb8b8"/>
  <path id="Path_1234" data-name="Path 1234" d="M897.381,214.138s9.772,27.851,7.329,35.669-21.988,44.464-21.988,44.464l2.443,17.1,48.862-75.247s-12.215-16.124-8.8-27.362Z" transform="translate(-211.502 -121.09)" fill="#ffb8b8"/>
  <path id="Path_1235" data-name="Path 1235" d="M898.012,466.983l-14.17,58.145s-70.361-42.021-89.905-40.555c0,0,42.509-48.373,58.634-48.373S898.012,466.983,898.012,466.983Z" transform="translate(-194.055 -165.784)" fill="#2f2e41"/>
  <path id="Path_1236" data-name="Path 1236" d="M945.382,245.528s-11.238-18.079-24.919-2.443-38.6,56.679-38.6,56.679l1.745-11.681s-15.427,11.681-16.4,26.828-4.886,65.963-4.886,65.963l-6.352,21.5,60.588,35.18,9.772-16.613s36.646,6.841,40.555,2.443-22.761-75.843-22.761-75.843Z" transform="translate(-206.244 -126.583)" fill="#575a89"/>
  <path id="Path_1237" data-name="Path 1237" d="M886.464,374.172l-29.317,40.555s-35.18,13.681-29.317,24.919,35.669-17.1,35.669-17.1l43.975-38.6Z" transform="translate(-200.586 -153.595)" fill="#ffb8b8"/>
  <path id="Path_1238" data-name="Path 1238" d="M928.539,252.8s-21.5,34.2-22.476,60.1-.733,23.209-.733,23.209l-10.749,15.147,25.408,14.17,12.948-13.437s28.828-8.307,25.408-32.249-5.375-68.406-10.261-68.406S928.539,252.8,928.539,252.8Z" transform="translate(-213.833 -129.455)" opacity="0.1"/>
  <path id="Path_1239" data-name="Path 1239" d="M929.7,246.716s-21.5,34.2-22.476,60.1,1.466,26.385,1.466,26.385l-13.193,17.59,24.431,13.193,14.17-18.079s28.828-8.306,25.408-32.249-5.375-68.406-10.261-68.406S929.7,246.716,929.7,246.716Z" transform="translate(-214.012 -128.26)" fill="#575a89"/>
  <path id="Path_1240" data-name="Path 1240" d="M870.991,179.835s-8.275-39.978,35.067-29.975c0,0,29.808-7.859,42.614,29.2l13.07,38.873-5.1-2.289-1.9,5.16-7.775,2.614-3.907-6.474-1.016,8.3-64.44,11.439s27.768-19.424,25.872-50.285l-5.092,6.278Z" transform="translate(-209.073 -109.198)" fill="#2f2e41"/>
</svg>
