<svg xmlns="http://www.w3.org/2000/svg" width="770.591" height="639.835" viewBox="0 0 770.591 639.835">
  <g id="Group_2310" data-name="Group 2310" transform="translate(-25 -4607)">
    <g id="Group_2191" data-name="Group 2191" transform="translate(316.83 4769.796)">
      <ellipse id="Ellipse_48" data-name="Ellipse 48" cx="239.5" cy="238.5" rx="239.5" ry="238.5" transform="translate(-0.239 0.039)" fill="#3950ca" opacity="0.105"/>
    </g>
    <g id="Group_2289" data-name="Group 2289" transform="translate(280.393 4792.644)">
      <path id="Path_1211" data-name="Path 1211" d="M493.226,355.93,476.293,339a12.45,12.45,0,0,1,16.933-18.232A12.45,12.45,0,0,1,510.159,339Zm-8.13-36.277a10.541,10.541,0,0,0-7.457,18l15.586,15.586,15.587-15.586A10.546,10.546,0,1,0,493.9,322.737l-.673.673-.673-.673a10.514,10.514,0,0,0-7.457-3.084Z" transform="translate(-472.646 -315.838)" fill="#3950ca"/>
    </g>
    <g id="Group_2312" data-name="Group 2312">
      <g id="undraw_online_chat_d7ek" transform="translate(25 4607)">
        <path id="Path_1187" data-name="Path 1187" d="M575.886,746.373a4.547,4.547,0,0,0-2.681.943c-2.285-6.039-5.823-9.92-9.8-9.92s-7.512,3.881-9.8,9.92a4.548,4.548,0,0,0-2.681-.943c-4.515,0-8.176,7.636-8.176,17.056h41.309C584.062,754.009,580.4,746.373,575.886,746.373Z" transform="translate(-220.617 -150.33)" fill="#3950ca"/>
        <path id="Path_1188" data-name="Path 1188" d="M468.886,746.373a4.547,4.547,0,0,0-2.681.943c-2.285-6.039-5.823-9.92-9.8-9.92s-7.512,3.881-9.8,9.92a4.547,4.547,0,0,0-2.681-.943c-4.515,0-8.176,7.636-8.176,17.056h41.309C477.062,754.009,473.4,746.373,468.886,746.373Z" transform="translate(-215.483 -150.33)" fill="#ff6584"/>
        <path id="Path_1189" data-name="Path 1189" d="M884.886,746.373a4.548,4.548,0,0,0-2.682.943c-2.285-6.039-5.823-9.92-9.8-9.92s-7.512,3.881-9.8,9.92a4.547,4.547,0,0,0-2.681-.943c-4.515,0-8.176,7.636-8.176,17.056h41.309C893.062,754.009,889.4,746.373,884.886,746.373Z" transform="translate(-235.444 -150.33)" fill="#ff6584"/>
        <rect id="Rectangle_980" data-name="Rectangle 980" width="553.122" height="1.904" transform="translate(187.547 611.441)" fill="#3f3d56"/>
        <path id="Path_1190" data-name="Path 1190" d="M573.2,762.85H514.753V761.9c0-13.625,5.334-24.3,12.142-24.3a6.765,6.765,0,0,1,3.2.83c3.413-8.354,8.432-13.117,13.877-13.117s10.465,4.763,13.878,13.117a6.765,6.765,0,0,1,3.2-.83c6.809,0,12.142,10.673,12.142,24.3Zm-56.532-1.9h54.618c-.237-11.718-4.825-21.442-10.229-21.442a5.291,5.291,0,0,0-3.112,1.11l-1.008.731-.44-1.165c-3.118-8.238-7.681-12.963-12.52-12.963s-9.4,4.725-12.52,12.963l-.44,1.165-1.008-.731a5.291,5.291,0,0,0-3.112-1.11C521.492,739.5,516.9,749.228,516.667,760.946Z" transform="translate(-219.274 -149.75)" fill="#3f3d56"/>
        <path id="Path_1191" data-name="Path 1191" d="M931.2,762.85H872.753V761.9c0-13.625,5.334-24.3,12.143-24.3a6.767,6.767,0,0,1,3.2.83c3.413-8.354,8.432-13.117,13.878-13.117s10.464,4.763,13.877,13.117a6.768,6.768,0,0,1,3.2-.83c6.809,0,12.143,10.673,12.143,24.3Zm-56.533-1.9h54.619c-.237-11.718-4.825-21.442-10.229-21.442a5.289,5.289,0,0,0-3.111,1.11l-1.009.731-.441-1.165c-3.117-8.238-7.681-12.963-12.519-12.963s-9.4,4.725-12.52,12.963l-.441,1.165-1.009-.731a5.288,5.288,0,0,0-3.111-1.11c-5.4,0-9.992,9.724-10.229,21.442Z" transform="translate(-236.451 -149.75)" fill="#3f3d56"/>
        <path id="Path_1192" data-name="Path 1192" d="M474.2,762.85H415.753V761.9c0-13.625,5.334-24.3,12.142-24.3a6.765,6.765,0,0,1,3.2.83c3.413-8.354,8.432-13.117,13.877-13.117s10.465,4.763,13.878,13.117a6.765,6.765,0,0,1,3.2-.83c6.809,0,12.142,10.673,12.142,24.3Zm-56.532-1.9h54.618c-.237-11.718-4.825-21.442-10.229-21.442a5.291,5.291,0,0,0-3.112,1.11l-1.008.731-.44-1.165c-3.118-8.238-7.681-12.963-12.52-12.963s-9.4,4.725-12.52,12.963l-.44,1.165-1.008-.731a5.291,5.291,0,0,0-3.112-1.11C422.492,739.5,417.9,749.228,417.667,760.946Z" transform="translate(-214.523 -149.75)" fill="#3f3d56"/>
        <ellipse id="Ellipse_74" data-name="Ellipse 74" cx="0.607" cy="1.62" rx="0.607" ry="1.62" transform="matrix(0.535, -0.845, 0.845, 0.535, 471.832, 268.893)" fill="#3f3d56"/>
        <path id="Path_1193" data-name="Path 1193" d="M0,0H0A2.835,2.835,0,0,1,2.835,2.835V45.356A2.835,2.835,0,0,1,0,48.191H0V0Z" transform="matrix(0.535, -0.845, 0.845, 0.535, 472.243, 264.839)" fill="#6a5fdd"/>
        <path id="Path_1194" data-name="Path 1194" d="M0,0H2.113A1.937,1.937,0,0,1,4.05,1.937V50.352a2.294,2.294,0,0,1-2.294,2.294H0Z" transform="matrix(0.535, -0.845, 0.845, 0.535, 468.844, 266.042)" fill="#3f3d56"/>
        <rect id="Rectangle_981" data-name="Rectangle 981" width="0.81" height="3.24" transform="matrix(0.535, -0.845, 0.845, 0.535, 474.501, 267.707)" fill="#d0cde1"/>
        <rect id="Rectangle_982" data-name="Rectangle 982" width="0.81" height="3.24" transform="matrix(0.535, -0.845, 0.845, 0.535, 478.264, 270.09)" fill="#d0cde1"/>
        <circle id="Ellipse_75" data-name="Ellipse 75" cx="25.534" cy="25.534" r="25.534" transform="translate(507.38 135.21)" fill="#ffb8b8"/>
        <path id="Path_1195" data-name="Path 1195" d="M765.617,308.04s12.456,19.618,9.342,25.223-12.767,20.863-12.767,20.863,42.972-31.762,37.367-38.612c0,0-12.767-10.9-13.39-17.749Z" transform="translate(-231.146 -129.236)" fill="#ffb8b8"/>
        <path id="Path_1196" data-name="Path 1196" d="M582.342,581.466l1.245,19.618,19.929-3.425-1.246-18.995Z" transform="translate(-27.942 -27.766)" fill="#ffb8b8"/>
        <path id="Path_1197" data-name="Path 1197" d="M488.935,593.074,485.2,605.529l22.109,4.048,3.114-11.521Z" transform="translate(-23.281 -28.457)" fill="#ffb8b8"/>
        <path id="Path_1198" data-name="Path 1198" d="M783.976,424.654,786,438.511s25.534,50.757-2.18,75.668L746.454,606.35s-4.048,47.954-15.881,64.769l-10.9,38.3-32.385-8.408,26.157-83.141s-.311-34.876,3.425-42.661l16.5-74.111,2.958-79.249S779.928,418.738,783.976,424.654Z" transform="translate(-227.552 -135.15)" fill="#2f2e41"/>
        <path id="Path_1199" data-name="Path 1199" d="M782.524,515.584l14.012,94.663s7.473,36.433,8.1,50.445,3.114,32.073,3.114,32.073l-25.223,4.048L757.613,574.748Z" transform="translate(-230.927 -139.687)" fill="#2f2e41"/>
        <path id="Path_1200" data-name="Path 1200" d="M809.193,708.686l-19.929,1.246s-7.419-8.407-6.979-4.048-4.231,22.731-4.231,22.731l-15.569,16.193s-30.828,0-26.157,14.947,41.1,2.491,41.1,2.491l14.013-4.671V763.8s23.977,3.425,24.6-2.8,0-14.012-.934-14.635S809.193,708.686,809.193,708.686Z" transform="translate(-229.882 -148.758)" fill="#2f2e41"/>
        <path id="Path_1201" data-name="Path 1201" d="M711.77,724.6s-14.245-1.14-16.24-2.849-5.128-8.832-9.4-4.273-19.658,19.373-19.658,19.373l-14.815,7.123s-19.373-5.128-25.926,6.838,32.194,24.5,42.166,20.513l12.536-2.564-.57,5.983s17.664,3.989,20.228-1.14,4.558-11.111,3.419-12.821S711.77,724.6,711.77,724.6Z" transform="translate(-224.563 -149.302)" fill="#2f2e41"/>
        <path id="Path_1202" data-name="Path 1202" d="M822.265,348.088l-22.059,48.8-9.578,21.187-3.55,7.856-51.379-.623,5.294-35.81c-7.473-19.306,10.276-27.091,10.276-27.091l14.947-15.928v2.538s14.635-17.438,21.174-27.4,15.569-6.228,15.569-6.228C818.528,313.836,822.265,348.088,822.265,348.088Z" transform="translate(-229.875 -130.048)" fill="#894033"/>
        <path id="Path_1203" data-name="Path 1203" d="M802.7,397.9l-9.578,21.187c-3.077-5.754-5.418-12.272-5.418-16.121,0-10.587,10.587-4.982,10.587-4.982s-8.563-46.864-8.563-60.877C789.729,327.8,797.488,369.109,802.7,397.9Z" transform="translate(-232.37 -131.059)" opacity="0.2"/>
        <path id="Path_1204" data-name="Path 1204" d="M790.75,404.674l-46.4-.934s-33.942,2.8-28.959,16.5,32.073,0,32.073,0l54.182,8.407Z" transform="translate(-228.877 -134.32)" fill="#ffb8b8"/>
        <path id="Path_1205" data-name="Path 1205" d="M802.916,318.042s-16.192,1.246-16.192,15.258,14.635,63.835,14.635,63.835-10.587-5.605-10.587,4.982,17.749,41.415,19.618,20.863c0,0,26.779,13.078,25.223-11.521s-18.372-76.6-18.372-76.6S815.371,317.108,802.916,318.042Z" transform="translate(-232.323 -130.207)" fill="#894033"/>
        <path id="Path_1206" data-name="Path 1206" d="M763.642,284.784c-1.788-1.73-1.755-4.649-3.2-6.678-2.263-3.185-6.974-2.972-10.843-2.422a29.885,29.885,0,0,0-7.567,1.758,7.456,7.456,0,0,0-4.377,5.013c-.3,1.255-.971-2.306-1.651-6.917A22.461,22.461,0,0,1,748.3,252.1l.151-.074c4.376-2.126,8.96-4,13.8-4.532s10,.428,13.79,3.474c1.734,1.392,3.144,3.18,5,4.4,3.266,2.144,7.4,2.248,11.281,2.7a31.353,31.353,0,0,1,12.576,3.858,16.994,16.994,0,0,1,7.981,10.15c1.229,5.005-.777,10.922-5.7,13.094a5.931,5.931,0,0,0-2.224,1.632c-4.041,4.94,2.483,7.643,3.429,11.943.79,3.588-2.661,6.836-6.2,7.824a14.786,14.786,0,0,1-16.971-8.108c-1.214-2.815-1.49-5.928-1.82-8.975-.378-3.488-9.527-9.806-3.351-5.054a8.625,8.625,0,0,1,2.74,3.465c1.879,4.5-2.021,7.051-4.112,10.262a11.424,11.424,0,0,0-.065,12.079,13.17,13.17,0,0,1-6.054-15.674c.561-1.526,1.411-2.937,1.921-4.481.8-2.409.092-7.091-3.464-6.142C768.473,284.619,766.3,287.36,763.642,284.784Z" transform="translate(-229.878 -126.817)" fill="#2f2e41"/>
        <circle id="Ellipse_76" data-name="Ellipse 76" cx="11.424" cy="11.424" r="11.424" transform="translate(730.423 463.06)" fill="#d0cde1"/>
        <circle id="Ellipse_77" data-name="Ellipse 77" cx="19.04" cy="19.04" r="19.04" transform="translate(694.247 492.572)" fill="#3950ca"/>
        <rect id="Rectangle_983" data-name="Rectangle 983" width="1.904" height="88.538" transform="translate(717.477 523.037)" fill="#3f3d56"/>
        <path id="Path_1207" data-name="Path 1207" d="M958.611,670.125A19.992,19.992,0,1,1,978.6,650.132,19.992,19.992,0,0,1,958.611,670.125Zm0-38.081A18.088,18.088,0,1,0,976.7,650.132,18.088,18.088,0,0,0,958.611,632.044Z" transform="translate(-239.612 -145.184)" fill="#3f3d56"/>
        <path id="Path_1208" data-name="Path 1208" d="M975.995,634.893a12.376,12.376,0,1,1,12.376-12.376A12.376,12.376,0,0,1,975.995,634.893Zm0-22.849a10.472,10.472,0,1,0,10.472,10.472A10.472,10.472,0,0,0,975.995,612.044Z" transform="translate(-240.811 -144.224)" fill="#3f3d56"/>
        <path id="Path_1209" data-name="Path 1209" d="M634.775,413.417,600.53,379.9H445.144V283.742H648.876V379.9H634.445ZM447.048,377.991H601.307l31.52,30.853-.3-30.853h14.449V285.646H447.048Z" transform="translate(-215.934 -128.563)" fill="#3950ca"/>
        <path id="Path_1210" data-name="Path 1210" d="M256.244,250.416l.331-33.521h-14.43V120.742H445.876V216.9H290.49Zm-12.2-35.425H258.5l-.3,30.853,31.52-30.853H443.972V122.646H244.048Z" transform="translate(-206.193 -120.742)" fill="#475677"/>
        <rect id="Rectangle_984" data-name="Rectangle 984" width="121.858" height="1.904" transform="translate(73.08 30.465)" fill="#3950ca"/>
        <g id="Group_2311" data-name="Group 2311">
          <path id="Path_1215" data-name="Path 1215" d="M601.089,357.63a20.944,20.944,0,1,1,20.944-20.944,20.944,20.944,0,0,1-20.944,20.944Zm0-39.985a19.04,19.04,0,1,0,19.04,19.04A19.04,19.04,0,0,0,601.089,317.646Z" transform="translate(-222.411 -130.098)" fill="#3950ca"/>
          <g id="Group_2290" data-name="Group 2290" transform="translate(366.301 195.164)">
            <circle id="Ellipse_78" data-name="Ellipse 78" cx="4.76" cy="4.76" r="4.76" transform="translate(16.184)" fill="#3950ca"/>
            <circle id="Ellipse_79" data-name="Ellipse 79" cx="4.76" cy="4.76" r="4.76" fill="#3950ca"/>
            <path id="Path_1216" data-name="Path 1216" d="M595.9,341.741c-1.942,13.437,13.472,16.163,11.929,0C607.923,341.73,596.524,341.75,595.9,341.741Z" transform="translate(-589.46 -326.509)" fill="#3950ca"/>
          </g>
        </g>
        <path id="Path_1217" data-name="Path 1217" d="M540.439,344.671c4.353,5.852,11.88,6.378,15.9,0Z" transform="translate(-220.506 -131.486)" fill="#ff6584"/>
        <rect id="Rectangle_985" data-name="Rectangle 985" width="121.858" height="1.904" transform="translate(73.305 44.991)" fill="#ff6584"/>
        <rect id="Rectangle_986" data-name="Rectangle 986" width="121.858" height="1.904" transform="translate(73.305 58.319)" fill="#3950ca"/>
        <rect id="Rectangle_987" data-name="Rectangle 987" width="101.866" height="1.904" transform="translate(0 128.768)" fill="#3f3d56"/>
        <rect id="Rectangle_988" data-name="Rectangle 988" width="101.866" height="1.904" transform="translate(363.671 283.947)" fill="#3f3d56"/>
      </g>
      <path id="Path_1212" data-name="Path 1212" d="M556.024,328.714a2.782,2.782,0,0,0-3.934,3.934l3.934,3.934,3.934-3.934a2.782,2.782,0,0,0-3.934-3.934Z" transform="translate(-196.026 4476.319)" fill="#ff6584"/>
      <path id="Path_1213" data-name="Path 1213" d="M539.024,328.714a2.782,2.782,0,0,0-3.934,3.934l3.934,3.934,3.934-3.934a2.782,2.782,0,0,0-3.934-3.934Z" transform="translate(-195.21 4476.319)" fill="#ff6584"/>
      <path id="Path_1214" data-name="Path 1214" d="M547.089,357.63a20.944,20.944,0,1,1,20.944-20.944,20.944,20.944,0,0,1-20.944,20.944Zm0-39.985a19.04,19.04,0,1,0,19.04,19.04A19.04,19.04,0,0,0,547.089,317.646Z" transform="translate(-194.82 4476.902)" fill="#ff6584"/>
    </g>
  </g>
</svg>
