<svg id="undraw_content_structure_79gj" xmlns="http://www.w3.org/2000/svg" xmlns:xlink="http://www.w3.org/1999/xlink" width="650.233" height="560.403" viewBox="0 0 650.233 560.403">
  <defs>
    <linearGradient id="linear-gradient" x1="0.5" x2="0.5" y2="1" gradientUnits="objectBoundingBox">
      <stop offset="0" stop-color="#6a5fdd"/>
      <stop offset="1" stop-color="#241d8c"/>
    </linearGradient>
    <linearGradient id="linear-gradient-2" x1="0.099" y1="0.79" x2="0.5" y2="1" gradientUnits="objectBoundingBox">
      <stop offset="0" stop-color="#736ad0"/>
      <stop offset="1" stop-color="#070071"/>
    </linearGradient>
  </defs>
  <rect id="Rectangle_956" data-name="Rectangle 956" width="95.753" height="85.018" transform="translate(11.658 90.915)" fill="#532ab4"/>
  <rect id="Rectangle_957" data-name="Rectangle 957" width="95.753" height="85.018" transform="translate(11.658 243.947)" fill="#ff6584"/>
  <rect id="Rectangle_958" data-name="Rectangle 958" width="95.753" height="85.018" transform="translate(319.327 90.915)" fill="#d0cde1"/>
  <rect id="Rectangle_959" data-name="Rectangle 959" width="95.753" height="85.018" transform="translate(319.327 243.947)" fill="#d0cde1"/>
  <rect id="Rectangle_960" data-name="Rectangle 960" width="95.753" height="85.018" transform="translate(166.58 90.915)" fill="#3f3d56"/>
  <rect id="Rectangle_961" data-name="Rectangle 961" width="95.753" height="85.018" transform="translate(166.58 243.947)" fill="#3f3d56"/>
  <path id="Path_1164" data-name="Path 1164" d="M485.224,292.551l-61.859-1.4c7.408-23.971,9.006-46.792,1.536-67.821l61.859,1.4a135.441,135.441,0,0,0-1.536,67.821Z" transform="translate(-239.405 -124.27)" fill="#ff6584"/>
  <rect id="Rectangle_962" data-name="Rectangle 962" width="1.491" height="32.056" transform="translate(200.087 113.186) rotate(-88.703)" fill="#fff"/>
  <rect id="Rectangle_963" data-name="Rectangle 963" width="1.491" height="32.056" transform="translate(199.952 119.148) rotate(-88.703)" fill="#fff"/>
  <rect id="Rectangle_964" data-name="Rectangle 964" width="1.491" height="32.056" transform="translate(199.817 125.11) rotate(-88.703)" fill="#fff"/>
  <rect id="Rectangle_965" data-name="Rectangle 965" width="1.491" height="32.056" transform="translate(199.682 131.073) rotate(-88.703)" fill="#fff"/>
  <rect id="Rectangle_966" data-name="Rectangle 966" width="1.491" height="32.056" transform="translate(199.547 137.035) rotate(-88.703)" fill="#fff"/>
  <rect id="Rectangle_967" data-name="Rectangle 967" width="1.491" height="32.056" transform="translate(199.412 142.997) rotate(-88.703)" fill="#fff"/>
  <rect id="Rectangle_968" data-name="Rectangle 968" width="1.491" height="32.056" transform="translate(199.277 148.96) rotate(-88.703)" fill="#fff"/>
  <rect id="Rectangle_969" data-name="Rectangle 969" width="1.491" height="32.056" transform="translate(199.142 154.922) rotate(-88.703)" fill="#fff"/>
  <circle id="Ellipse_71" data-name="Ellipse 71" cx="17.948" cy="17.948" r="17.948" transform="translate(245.608 67.299)" fill="#ff6584"/>
  <path id="Path_1165" data-name="Path 1165" d="M327.289,113.413l-6.8-8.309,1.069-.874,5.628,6.879,9.835-14.424,1.14.778Z" transform="translate(-64.374 -19.42)" fill="#fff"/>
  <ellipse id="Ellipse_72" data-name="Ellipse 72" cx="296.618" cy="15.114" rx="296.618" ry="15.114" transform="translate(0 530.175)" opacity="0.54" fill="url(#linear-gradient)"/>
  <path id="Path_1166" data-name="Path 1166" d="M886.149,620.514l69.968-104.049L886.292,631.708l.146,11.708q-7.662.058-15.175-.255l3.47-150.5-.1-1.161.128-.224.332-14.221L798.475,365.806l76.533,100.6.272,3.006L877.9,355.707,811.719,240.368l66.37,95.363L877.4,100.155v-.784l.023.771,4.393,185.665,60.317-75.417L882.011,301.8l1.317,101.71,55.5-99.265-55.3,114.218.733,56.556,80.717-138.275L884.51,494.752Z" transform="translate(-314.749 -99.371)" fill="url(#linear-gradient-2)"/>
  <path id="Path_1167" data-name="Path 1167" d="M502.146,640.959l-52.069-33.425c18.812-16.6,32.067-35.247,36.647-57.088l52.07,33.425a135.438,135.438,0,0,0-36.647,57.088Z" transform="translate(-244.77 -189.974)" fill="#6a5fdd"/>
  <rect id="Rectangle_970" data-name="Rectangle 970" width="1.491" height="32.056" transform="translate(247.05 380.133) rotate(-57.302)" fill="#fff"/>
  <rect id="Rectangle_971" data-name="Rectangle 971" width="1.491" height="32.056" transform="translate(243.828 385.152) rotate(-57.302)" fill="#fff"/>
  <rect id="Rectangle_972" data-name="Rectangle 972" width="1.491" height="32.056" transform="translate(240.607 390.171) rotate(-57.302)" fill="#fff"/>
  <rect id="Rectangle_973" data-name="Rectangle 973" width="1.491" height="32.056" transform="translate(237.385 395.189) rotate(-57.302)" fill="#fff"/>
  <rect id="Rectangle_974" data-name="Rectangle 974" width="1.491" height="32.056" transform="translate(234.163 400.208) rotate(-57.302)" fill="#fff"/>
  <rect id="Rectangle_975" data-name="Rectangle 975" width="1.491" height="32.056" transform="translate(230.942 405.227) rotate(-57.302)" fill="#fff"/>
  <rect id="Rectangle_976" data-name="Rectangle 976" width="1.491" height="32.056" transform="translate(227.72 410.246) rotate(-57.302)" fill="#fff"/>
  <rect id="Rectangle_977" data-name="Rectangle 977" width="1.491" height="32.056" transform="translate(224.498 415.264) rotate(-57.302)" fill="#fff"/>
  <path id="Path_1168" data-name="Path 1168" d="M376.664,788.008,389.67,762.8c24,3.948,28.236,3.141,49.208.419l5.576,27.355a302.2,302.2,0,0,0-67.79-2.568Z" transform="translate(-230.025 -232.628)" fill="#6a5fdd"/>
  <path id="Path_1169" data-name="Path 1169" d="M251.29,685.722l-.408-14.172,1.49.056.408,14.172Z" transform="translate(-50.392 -134.887)" fill="#fff"/>
  <path id="Path_1170" data-name="Path 1170" d="M243.832,685.439l-.408-14.172,1.49.057.408,14.172Z" transform="translate(-48.894 -134.83)" fill="#fff"/>
  <path id="Path_1171" data-name="Path 1171" d="M236.375,685.157l-.408-14.172,1.49.056.408,14.172Z" transform="translate(-47.396 -134.774)" fill="#fff"/>
  <rect id="Rectangle_978" data-name="Rectangle 978" width="14.182" height="1.491" transform="translate(183.019 550.161) rotate(-87.83)" fill="#fff"/>
  <rect id="Rectangle_979" data-name="Rectangle 979" width="14.182" height="1.491" transform="translate(177.059 549.936) rotate(-87.83)" fill="#fff"/>
  <path id="Path_1172" data-name="Path 1172" d="M214.105,684.309l1.482-14.172,1.49.057-1.482,14.172Z" transform="translate(-43.005 -134.603)" fill="#fff"/>
  <path id="Path_1173" data-name="Path 1173" d="M206.647,684.027l1.482-14.172,1.49.056-1.482,14.172Z" transform="translate(-41.507 -134.546)" fill="#fff"/>
  <path id="Path_1174" data-name="Path 1174" d="M199.19,683.744l1.482-14.172,1.49.057L200.68,683.8Z" transform="translate(-40.009 -134.49)" fill="#fff"/>
  <path id="Path_1175" data-name="Path 1175" d="M493.623,519.886l.945,9.446s-7.557,27.395,3.779,25.505,7.557-25.505,7.557-25.505l-1.889-7.557Z" transform="translate(-253.211 -183.836)" fill="#ffb8b8"/>
  <path id="Path_1176" data-name="Path 1176" d="M642.073,521.068l-.945,9.446s7.557,27.395-3.779,25.505-7.557-25.505-7.557-25.505l1.889-7.557Z" transform="translate(-280.746 -184.073)" fill="#ffb8b8"/>
  <path id="Path_1177" data-name="Path 1177" d="M333.815,644.043l-2.834,19.837,19.838-1.889-2.835-19.837Z" transform="translate(-66.481 -128.982)" fill="#ffb8b8"/>
  <path id="Path_1178" data-name="Path 1178" d="M461.464,644.043,464.3,663.88l-19.838-1.889,2.835-19.837Z" transform="translate(-89.274 -128.982)" fill="#ffb8b8"/>
  <path id="Path_1179" data-name="Path 1179" d="M523.03,506.8s-4.723,1.889,0,73.682l1.889,117.136h18.893l7.557-103.911,10.391-63.291L591.045,612.6l23.616,87.852,18.893-4.723L608.993,583.315s4.723-65.18-12.28-76.516S523.03,506.8,523.03,506.8Z" transform="translate(-259.002 -180.195)" fill="#2f2e41"/>
  <path id="Path_1180" data-name="Path 1180" d="M522.333,758.759s-.392-8.591-2.085-9.019-13.974,9.963-13.974,9.963-13.225-1.889-12.28,12.28,19.838,9.446,19.838,9.446,3.779,8.5,11.336,8.5,18.893,0,19.838-5.668-4.723-31.173-6.613-30.229-6.613,0-6.613,0Z" transform="translate(-253.582 -230.001)" fill="#2f2e41"/>
  <path id="Path_1181" data-name="Path 1181" d="M651.408,758.759s.392-8.591,2.085-9.019,13.974,9.963,13.974,9.963,13.225-1.889,12.28,12.28-19.838,9.446-19.838,9.446-3.779,8.5-11.336,8.5-18.893,0-19.838-5.668,4.723-31.173,6.612-30.229,6.613,0,6.613,0Z" transform="translate(-280.634 -230.001)" fill="#2f2e41"/>
  <circle id="Ellipse_73" data-name="Ellipse 73" cx="17.948" cy="17.948" r="17.948" transform="translate(282.921 147.121)" fill="#ffb8b8"/>
  <path id="Path_1182" data-name="Path 1182" d="M579.327,309.476s.945,25.505,5.668,28.339-28.339,0-28.339,0l3.779-21.727Z" transform="translate(-266.178 -141.573)" fill="#ffb8b8"/>
  <path id="Path_1183" data-name="Path 1183" d="M578.793,340.19s-17-8.5-33.062-2.834-24.561,12.28-24.561,12.28l10.391,54.789s-19.837,71.793-14.17,73.682,72.738-5.668,79.35,0,6.612-6.613,6.612-6.613-9.446-23.616-7.557-43.454,1.889-26.45,1.889-26.45l10.391-44.4Z" transform="translate(-258.087 -146.782)" fill="#575a89"/>
  <path id="Path_1184" data-name="Path 1184" d="M522.578,353.213h-6.613s-10.391,6.613-10.391,16.059-9.446,61.4-9.446,61.4l-5.668,58.568,16.059,2.834,14.17-77.461,10.391-20.782Z" transform="translate(-252.882 -150.358)" fill="#575a89"/>
  <path id="Path_1185" data-name="Path 1185" d="M608.667,362.67h17.948s5.668,5.668,8.5,18.893,5.668,65.18,5.668,65.18L638.9,493.975h-14.17l-1.889-61.4L613.391,392.9Z" transform="translate(-276.625 -152.257)" fill="#575a89"/>
  <path id="Path_1186" data-name="Path 1186" d="M549.31,298.4l3.8,9.707c1.557,3.978,3.34,8.234,6.99,10.454,4.506,2.741,10.523,1.4,14.883-1.565a23.24,23.24,0,0,0-10.46-42.3l-.18,3.249-3.987-3.342a3.876,3.876,0,0,1-6.025.852c1.047,2.171-.161,4.819-1.907,6.482-2.145,2.043-8.278,4.5-8.024,8.15C544.568,292.526,548.321,295.874,549.31,298.4Z" transform="translate(-263.714 -134.569)" fill="#2f2e41"/>
</svg>
