<svg xmlns="http://www.w3.org/2000/svg" width="1045.51" height="1359.551" viewBox="0 0 1045.51 1359.551">
  <g id="vide-art" transform="translate(-1738.162 -1203.135)">
    <path id="Path_4199" data-name="Path 4199" d="M724.765,562.423l-5.25,110.251,252,84s-13.125-139.126-5.25-152.252Z" transform="translate(1658.406 1229.294)" fill="#ffb8b8"/>
    <path id="Path_4200" data-name="Path 4200" d="M533.409,596.722,509.784,688.6H620.035V596.722Z" transform="translate(1440.257 1685.877)" fill="#ffb8b8"/>
    <path id="Path_4201" data-name="Path 4201" d="M665.561,664.771l49.873,17.577,26.249-65.913-44.625-35.154Z" transform="translate(1880.363 1642.252)" fill="#a0616a"/>
    <path id="Path_4202" data-name="Path 4202" d="M844.414,667.632s74.371-9.771,74.371,53.23,10.5,217.877-94.5,199.5c0,0-47.251,5.25-28.875-49.875,0,0,18.705-22.425,11.978-36.15s-46.1-24.225-40.853-32.1,63-70.876,63-70.876Z" transform="translate(1789.889 1524.985)" fill="#2f2e41"/>
    <path id="Path_4203" data-name="Path 4203" d="M1295.916,720.779l-257.253-89.251-15.75,63S637.033,471.4,613.408,623.653c0,0-21,123.376,10.5,286.128l2.625,131.251s65.626,15.75,97.126,2.625l2.625-141.752s26.25-91.876,13.125-162.752c0,0,196.877,154.877,286.128,173.252,0,0-312.378,241.5-275.628,317.628s81.376,89.251,139.126,76.126c39.8-9.045,217.97-152.724,324.9-241.182A303.19,303.19,0,0,0,1324.614,815.6C1322.7,780.78,1314.666,747.029,1295.916,720.779Z" transform="translate(1339.257 1252.066)" fill="#2f2e41"/>
    <path id="Path_4204" data-name="Path 4204" d="M765.216,721.782s-2.625-31.5-18.375-18.375-70.876,63-70.876,63-199.5,21.9-78.751,71.774a299.423,299.423,0,0,0,162.751-21s134.169,34.446,131.4,1.023-34.271-89.24-34.271-89.24-36.75,26.943-78.751-9.808Z" transform="translate(1203.2 1618.566)" fill="#2f2e41"/>
    <circle id="Ellipse_727" data-name="Ellipse 727" cx="97.126" cy="97.126" r="97.126" transform="translate(2391.045 1295.587)" fill="#ffb8b8"/>
    <path id="Path_4205" data-name="Path 4205" d="M898.823,459.487s15.75,78.751,44.625,97.126l-160.127,189-60.376-57.751,44.625-78.751s49.875-28.875,34.125-68.251Z" transform="translate(1668.099 938.476)" fill="#ffb8b8"/>
    <path id="Path_4206" data-name="Path 4206" d="M830.552,486.937s115.5,23.625,128.626,99.751S946.053,801.94,946.053,801.94l-55.126,409.5S888.3,1384.7,820.052,1355.821s18.375-160.126,18.375-160.126l23.625-257.253s10.5-217.877-10.5-244.127l-84-26.25S785.927,494.812,830.552,486.937Z" transform="translate(1794.121 1016.028)" fill="#ffb8b8"/>
    <path id="Path_4207" data-name="Path 4207" d="M1249.776,498.614s-78.751-2.625-128.626,60.376S950.523,669.241,950.523,669.241L648.645,787.367s-55.126-97.126-89.251-63,63,120.751,107.626,110.251,315-91.876,315-91.876l215.252-97.126Z" transform="translate(1185.894 1048.976)" fill="#ffb8b8"/>
    <path id="Path_4208" data-name="Path 4208" d="M975.887,483.243S874.955,618.124,830.33,615.5s-14.57-82.381-14.57-82.381l-31.5,7.875s-43.181,82.381-48.431,87.631c0,0-63,102.376,7.875,126l2.625,55.125s175.877-7.875,252,31.5l15.75-136.5s-99.751-49.875-44.625-147c0,0,19.556-50.88,40.556-56.13Z" transform="translate(1631.591 1005.592)" fill="#3f3d56"/>
    <path id="Path_4209" data-name="Path 4209" d="M1083.058,671.879l-401.629,294S1085.683,727,1083.058,671.879Z" transform="translate(1550.803 1538.531)" opacity="0.1"/>
    <ellipse id="Ellipse_728" data-name="Ellipse 728" cx="7.583" cy="17.063" rx="7.583" ry="17.063" transform="translate(2581.651 1367.775)" fill="#ffb8b8"/>
    <path id="Path_4210" data-name="Path 4210" d="M721.3,546.552s-27.222-183.861,167.18-127.13c0,0,137.528-27.974,186.1,143.792l49.3,180.084-22.568-11.728-9.976,22.961-36.017,9.861-16.078-30.443-6.776,37.474L736.605,806.667S867.867,725.6,867.27,584.834l-24.777,27.21Z" transform="translate(1659.781 794.581)" fill="#2f2e41"/>
  </g>
</svg>
